<?xml version="1.0" encoding="utf-8"?>
<!-- Generator: Adobe Illustrator 15.0.0, SVG Export Plug-In . SVG Version: 6.00 Build 0)  -->
<!DOCTYPE svg PUBLIC "-//W3C//DTD SVG 1.1//EN" "http://www.w3.org/Graphics/SVG/1.1/DTD/svg11.dtd">
<svg version="1.1" id="Layer_1" xmlns="http://www.w3.org/2000/svg" xmlns:xlink="http://www.w3.org/1999/xlink" x="0px" y="0px"
	 width="100px" height="100px" viewBox="0 0 100 100" enable-background="new 0 0 100 100" xml:space="preserve">
<g>
	<polygon fill="#B22222" points="80.882,75.439 78.936,63.932 69.085,66.943 73.907,77.572 	"/>
	<path fill="#B22222" d="M85.309,84.705c-0.947-3.096-3.396-6.691-4.234-7.871l-6.989,2.137c-0.729,1.408-2.286,5.178-0.712,9.383
		c1.6,4.272,9.911,14.731,9.502,10.422C82.057,90.158,86.458,88.469,85.309,84.705z"/>
	<path fill="#B22222" d="M73.195,45C67.662,26,58.871-1.208,54.021,0.274C49.43,1.678,56.257,26,62.156,45H40.099l6.131-14.551
		l-9.519-3.986L28.865,45H8v12h6v-4h1v4h6v-4h1v4h1.625L10.393,88.238c-0.028,0.052-0.055,0.139-0.079,0.195
		c-0.333,0.782-0.094,1.65,0.533,1.918c0.628,0.267,1.407-0.146,1.74-0.93c0.013-0.029,0.023-0.057,0.034-0.086l0.009,0.005
		c-0.015,0.029-0.03,0.058-0.042,0.089c-0.333,0.783,0.128,1.729,1.031,2.112c0.727,0.31,1.517,0.158,1.971-0.322
		c-0.076,0.642,0.23,1.259,0.799,1.499c0.706,0.301,1.548-0.093,1.881-0.877c0.013-0.029,0.023-0.061,0.034-0.091l0.006,0.003
		c-0.014,0.029-0.027,0.059-0.04,0.088c-0.333,0.784-0.253,1.568,0.178,1.752c0.432,0.184,1.051-0.305,1.384-1.089
		c0.013-0.03,0.023-0.06,0.035-0.09l0.011-0.062L34.857,57H37v-4h1v4h7v-4h1v4h7v-4h1v4h7v-4h1v4h4.188
		c1.528,5,2.633,7.736,2.879,8.432l9.076-2.809C78,62.074,77.473,60,76.657,57H78v-4h1v4h7v-4h1v4h5V45H73.195z"/>
	<path fill="#B22222" d="M51.896,16.987c0.666-1.568-0.064-3.38-1.635-4.046l-3.835-1.628c-1.569-0.666-3.382,0.066-4.047,1.634
		l-1.87,4.405l9.519,4.04L51.896,16.987z"/>
	
		<rect x="38.2" y="20.683" transform="matrix(-0.9205 -0.3907 0.3907 -0.9205 73.974 62.7423)" fill="#B22222" width="10.34" height="6.327"/>
	<polygon fill="#B22222" points="10.877,100 14.625,96.896 10.505,95.148 	"/>
</g>
</svg>
