<?xml version="1.0" encoding="utf-8"?>
<!-- Generator: Adobe Illustrator 15.0.0, SVG Export Plug-In . SVG Version: 6.00 Build 0)  -->
<!DOCTYPE svg PUBLIC "-//W3C//DTD SVG 1.1//EN" "http://www.w3.org/Graphics/SVG/1.1/DTD/svg11.dtd">
<svg version="1.1" id="Layer_1" xmlns="http://www.w3.org/2000/svg" xmlns:xlink="http://www.w3.org/1999/xlink" x="0px" y="0px"
	 width="100px" height="100px" viewBox="0 0 100 100" enable-background="new 0 0 100 100" xml:space="preserve">
<g id="Captions">
	<rect x="-192" width="185" height="99"/>
	<rect x="0.023" y="-36" width="100" height="30"/>
	<text transform="matrix(1 0 0 1 66 -19.5)" font-family="'Helvetica'" font-size="2.4">http://thenounproject.com</text>
	<text transform="matrix(1 0 0 1 7.166 -24.5)" font-family="'Helvetica-Bold'" font-size="6.1578">The Noun Project</text>
	<text transform="matrix(1 0 0 1 8.2861 -19.7002)" font-family="'Helvetica-Bold'" font-size="4">Icon Template</text>
	<text transform="matrix(1 0 0 1 -178.5 10.5)" font-family="'Helvetica-Bold'" font-size="6.1578">Reminders</text>
	<line fill="none" stroke="#FFFFFF" stroke-miterlimit="10" x1="8" y1="-14.5" x2="18" y2="-14.5"/>
	<line fill="none" stroke="#FFFFFF" stroke-miterlimit="10" x1="-179" y1="16.5" x2="-162" y2="16.5"/>
	<g>
		<g>
			<g>
				<rect x="-170.802" y="31.318" width="8.721" height="8.642"/>
				<path d="M-164.455,42.312h4.747v-4.703h-4.747V42.312z M-159.266,42.749h-5.63V37.17h5.63V42.749L-159.266,42.749z
					 M-166.221,44.062h8.279v-8.203h-8.279V44.062L-166.221,44.062z M-157.5,44.5h-9.163v-9.079h9.163V44.5L-157.5,44.5z"/>
				<polygon points="-166.149,44.133 -166.292,43.991 -158.013,35.787 -157.871,35.929 				"/>
			</g>
		</g>
	</g>
	<rect x="-179" y="58" fill="none" width="35" height="32.5"/>
	<text transform="matrix(1 0 0 1 -179 60.1572)" font-family="'Helvetica-Bold'" font-size="3">Strokes</text>
	<text transform="matrix(1 0 0 1 -179 65.1572)" font-family="'Helvetica'" font-size="2.4">Try to keep strokes at 4px</text>
	<text transform="matrix(1 0 0 1 -179 70.1572)" font-family="'Helvetica'" font-size="2.4">Minimum stroke weight is 2px</text>
	<text transform="matrix(1 0 0 1 -179 74.6572)" font-family="'Helvetica'" font-size="2.4">For thicker strokes use even </text>
	<text transform="matrix(1 0 0 1 -179 77.6572)" font-family="'Helvetica'" font-size="2.4">numbers: 6px, 8px etc.</text>
	<text transform="matrix(1 0 0 1 -179 82.1572)" font-family="'Helvetica-Bold'" font-size="2.4">Remember to expand strokes </text>
	<text transform="matrix(1 0 0 1 -179 85.1572)" font-family="'Helvetica-Bold'" font-size="2.4">before saving as an SVG </text>
	<rect x="-136.5" y="58" fill="none" width="35" height="32.5"/>
	<text transform="matrix(1 0 0 1 -136.5 60.1572)" font-family="'Helvetica-Bold'" font-size="3">Size</text>
	<text transform="matrix(1 0 0 1 -136.5 65.1572)" font-family="'Helvetica'" font-size="2.4">Cannot be wider or taller than </text>
	<text transform="matrix(1 0 0 1 -136.5 68.6572)" font-family="'Helvetica'" font-size="2.4">100px (artboard size)</text>
	<text transform="matrix(1 0 0 1 -136.5 73.6572)" font-family="'Helvetica'" font-size="2.4">Scale your icon to fill as much of </text>
	<text transform="matrix(1 0 0 1 -136.5 76.6572)" font-family="'Helvetica'" font-size="2.4">the artboard as possible</text>
	<rect x="-94" y="58" fill="none" width="35" height="32.5"/>
	<text transform="matrix(1 0 0 1 -94 60.1572)" font-family="'Helvetica-Bold'" font-size="3">Ungroup</text>
	<text transform="matrix(1 0 0 1 -94 65.1572)" font-family="'Helvetica'" font-size="2.4">If your design has more than one </text>
	<text transform="matrix(1 0 0 1 -94 68.1572)" font-family="'Helvetica'" font-size="2.4">shape, make sure to ungroup</text>
	<rect x="-50" y="58" fill="none" width="35" height="32.5"/>
	<text transform="matrix(1 0 0 1 -50 60.1572)" font-family="'Helvetica-Bold'" font-size="3">Save as</text>
	<text transform="matrix(1 0 0 1 -50 65.1572)" font-family="'Helvetica'" font-size="2.4">Save as .SVG and make sure </text>
	<text transform="matrix(1 0 0 1 -50 68.1572)" font-family="'Helvetica'" font-size="2.4">“Use Artboards” is checked</text>
	<text transform="matrix(1.0074 0 0 1 -125.542 30.5938)" font-family="'Helvetica'" font-size="2.5731">100px</text>
	<text transform="matrix(1.0074 0 0 1 -41 39)" font-family="'Helvetica-Bold'" font-size="5.1462">.SVG</text>
	<rect x="-126.514" y="34.815" width="10.261" height="10.185"/>
	<rect x="-126.477" y="31.766" width="0.522" height="2.337"/>
	<rect x="-116.812" y="31.766" width="0.523" height="2.337"/>
	<rect x="-127" y="32.337" width="11.233" height="0.572"/>
	<g>
		<rect x="-83.805" y="33.844" width="10.305" height="10.156"/>
		<rect x="-76.809" y="28.707" width="3.308" height="3.261"/>
	</g>
	<rect x="-178.5" y="22.5" stroke="#FFFFFF" stroke-miterlimit="10" width="30" height="30"/>
	<rect x="-136.5" y="22.5" stroke="#FFFFFF" stroke-miterlimit="10" width="30" height="30"/>
	<rect x="-93.5" y="22.5" stroke="#FFFFFF" stroke-miterlimit="10" width="30" height="30"/>
	<rect x="-49.5" y="22.5" stroke="#FFFFFF" stroke-miterlimit="10" width="30" height="30"/>
</g>
<g id="Your_Icon">
	<g>
		<path d="M67.741,63.35c0,0.01,0,0.037,0,0.047V63.35L67.741,63.35z"/>
		<g>
			<path fill="#B22222" d="M15.557,41.382c3.627,0,6.896-1.572,9.115-4.074c1.947-2.152,3.13-5.022,3.13-8.167
				c0-6.737-5.487-12.218-12.245-12.218c-6.73,0-12.227,5.48-12.227,12.218c0,3.144,1.197,6.014,3.135,8.187
				C8.716,39.81,11.957,41.382,15.557,41.382z"/>
			<path fill="#B22222" d="M37.377,29.142c0,3.144,1.188,6.014,3.14,8.167c2.223,2.502,5.496,4.074,9.105,4.074
				c3.601,0,6.869-1.572,9.087-4.074c1.956-2.152,3.121-5.022,3.121-8.167c0-6.737-5.451-12.218-12.208-12.218
				C42.874,16.924,37.377,22.404,37.377,29.142z"/>
			<path fill="#B22222" d="M71.415,29.142c0,3.144,1.179,6.014,3.103,8.167c2.256,2.502,5.498,4.074,9.125,4.074
				c3.601,0,6.877-1.572,9.092-4.074c1.957-2.152,3.135-5.022,3.135-8.167c0-6.737-5.469-12.218-12.227-12.218
				C76.896,16.924,71.415,22.404,71.415,29.142z"/>
		</g>
		<path fill="#B22222" d="M92.84,47.463c-2.763,2.619-6.473,3.844-10.542,3.844c-5.446,0-10.225-2.463-12.927-6.749
			c-0.73-0.985-1.657-1.459-3.27-1.459c-1.229,0-2.477,0.078-3.517,1.459c-2.698,4.286-7.55,6.749-12.982,6.749
			c-5.423,0-10.266-2.463-12.981-6.749c-1.031-1.381-2.302-1.459-3.536-1.459c-1.574,0-2.522,0.474-3.241,1.459
			c-2.702,4.286-7.48,6.749-12.908,6.749c-4.097,0-7.793-1.225-10.556-3.844H2v27.363C2,81.8,4.693,86.35,13.532,86.35h16.241
			V65.021c0-2.356,1.952-3.521,4.125-3.521s4.18,1.014,4.18,3.521V86.35h11.306h0.451h11.288V65.021c0-2.51,2.007-3.521,4.188-3.521
			c2.184,0,4.106,1.165,4.106,3.521V86.35h16.269c8.834,0,11.51-4.55,11.51-11.522V47.463H92.84z"/>
	</g>
</g>
</svg>
